<?xml version="1.0" encoding="UTF-8" standalone="no"?>
<!--
  SPDX-License-Identifier: CC0-1.0
  SPDX-FileCopyrightText: 2024 GNOME Foundation, Inc.
-->

<svg
   width="16"
   height="16"
   version="1.1"
   id="svg1"
   sodipodi:docname="community-supported-symbolic.svg"
   inkscape:version="1.3.2 (091e20ef0f, 2023-11-25)"
   xmlns:inkscape="http://www.inkscape.org/namespaces/inkscape"
   xmlns:sodipodi="http://sodipodi.sourceforge.net/DTD/sodipodi-0.dtd"
   xmlns="http://www.w3.org/2000/svg"
   xmlns:svg="http://www.w3.org/2000/svg">
  <defs
     id="defs1" />
  <sodipodi:namedview
     id="namedview1"
     pagecolor="#ffffff"
     bordercolor="#000000"
     borderopacity="0.25"
     inkscape:showpageshadow="2"
     inkscape:pageopacity="0.0"
     inkscape:pagecheckerboard="0"
     inkscape:deskcolor="#d1d1d1"
     inkscape:zoom="50.3125"
     inkscape:cx="8"
     inkscape:cy="8"
     inkscape:window-width="1920"
     inkscape:window-height="1011"
     inkscape:window-x="0"
     inkscape:window-y="0"
     inkscape:window-maximized="1"
     inkscape:current-layer="svg1" />
  <path
     d="m 11.395,0.96484 c -0.002,0.001945 -0.0039,0.003898 -0.0059,0.005859 -1.2183,-0.025529 -2.4022,0.41243 -3.3027,1.2344 L 8.08249,2.209009 C 8.0814,2.2100063 8.07967,2.2099637 8.07858,2.210959 L 7.998502,2.283225 7.910611,2.2051 7.908661,2.20315 c -1.2632,-1.1356 -3.0415,-1.5061 -4.6543,-0.97266 -1.6155,0.52968 -2.8279,1.8868 -3.168,3.5527 -0.34079,1.6637 0.2341,3.3862 1.5039,4.5137 l 5.7441,5.1172 c 0.3794122,0.338686 0.9525878,0.338686 1.332,0 l 5.7305,-5.1055 0.002,-0.00195 c 1.6033,-1.3871 1.9722,-3.4851 1.3652,-5.1875 -0.60675,-1.7019 -2.2196,-3.0917 -4.3379,-3.1523 -9.09e-4,-2.605e-5 -0.001,-0.001928 -0.002,-0.001953 -6.54e-4,-1.869e-5 -0.0013,1.842e-5 -0.002,0 -0.0094,-2.64e-4 -0.01798,0.004115 -0.02734,0.003906 z"
     color="#000000"
     stroke-linejoin="round"
     style="-inkscape-stroke:none"
     id="path1"
     sodipodi:nodetypes="ccccccccccccccccscccc" />
</svg>
