<?xml version="1.0" encoding="UTF-8" standalone="no"?>
<svg
   height="16px"
   viewBox="0 0 16 16"
   width="16px"
   version="1.1"
   id="svg1"
   sodipodi:docname="star-outline-rounded-symbolic.svg"
   inkscape:version="1.3.2 (091e20ef0f, 2023-11-25)"
   xmlns:inkscape="http://www.inkscape.org/namespaces/inkscape"
   xmlns:sodipodi="http://sodipodi.sourceforge.net/DTD/sodipodi-0.dtd"
   xmlns="http://www.w3.org/2000/svg"
   xmlns:svg="http://www.w3.org/2000/svg">
  <defs
     id="defs1" />
  <sodipodi:namedview
     id="namedview1"
     pagecolor="#ffffff"
     bordercolor="#000000"
     borderopacity="0.25"
     inkscape:showpageshadow="2"
     inkscape:pageopacity="0.0"
     inkscape:pagecheckerboard="0"
     inkscape:deskcolor="#d1d1d1"
     inkscape:zoom="50.3125"
     inkscape:cx="8"
     inkscape:cy="8"
     inkscape:window-width="1920"
     inkscape:window-height="1011"
     inkscape:window-x="0"
     inkscape:window-y="0"
     inkscape:window-maximized="1"
     inkscape:current-layer="svg1" />
  <path
     d="M 8.003906,0 C 7.570312,0 7.1875,0.273438 7.050781,0.683594 L 5.601562,5.023438 1.011719,5.007812 c -0.4375,0 -0.828125,0.28125 -0.9609378,0.695313 -0.1328124,0.417969 0.0195313,0.871094 0.3789068,1.125 l 3.625,2.554687 -1.5,4.285157 c -0.140626,0.40625 -0.011719,0.855469 0.328124,1.121093 0.335938,0.261719 0.804688,0.285157 1.164063,0.05078 l 4.003906,-2.59375 3.898438,2.589844 c 0.355469,0.234374 0.824219,0.21875 1.164062,-0.04688 0.339844,-0.261718 0.472657,-0.714843 0.332031,-1.117187 L 11.941406,9.382812 15.585938,6.804688 C 15.9375,6.554688 16.089844,6.101562 15.957031,5.691406 15.828125,5.277344 15.445312,4.996094 15.011719,4.992188 L 10.351562,4.976562 8.949219,0.691406 C 8.816406,0.28125 8.433594,0.00390625 8.003906,0 Z"
     fill="#222222"
     fill-opacity="0.35"
     id="path1"
     sodipodi:nodetypes="ccccccccccccccccccccc" />
</svg>
